<svg xmlns="http://www.w3.org/2000/svg" width="1240" height="700" viewBox="0 0 1240 700"><rect width="1240" height="700" fill="#ffffff"/><text x="48" y="56" font-size="24" fill="#0f172a" font-weight="700" text-anchor="start" font-family="'PingFang SC','Hiragino Sans GB','Microsoft YaHei','Noto Sans CJK SC',sans-serif">为什么告警的价值不在「产生」，而在「被读懂」？</text><text x="48" y="84" font-size="14" fill="#64748b" font-weight="400" text-anchor="start" font-family="'PingFang SC','Hiragino Sans GB','Microsoft YaHei','Noto Sans CJK SC',sans-serif">SIEM 把告警生产到了百万量级，人的消化能力几乎是条水平线</text><text x="1192" y="56" font-size="13" fill="#94a3b8" font-weight="600" text-anchor="end" font-family="'PingFang SC','Hiragino Sans GB','Microsoft YaHei','Noto Sans CJK SC',sans-serif">AI-miniSOC</text><line x1="110" y1="150" x2="110" y2="560" stroke="#334155" stroke-width="2"/><line x1="110" y1="560" x2="1150" y2="560" stroke="#334155" stroke-width="2"/><line x1="350" y1="150" x2="350" y2="560" stroke="#e2e8f0" stroke-width="1"/><text x="350" y="584" font-size="12" fill="#64748b" font-weight="400" text-anchor="middle" font-family="'PingFang SC','Hiragino Sans GB','Microsoft YaHei','Noto Sans CJK SC',sans-serif">第 1 个月</text><line x1="590" y1="150" x2="590" y2="560" stroke="#e2e8f0" stroke-width="1"/><text x="590" y="584" font-size="12" fill="#64748b" font-weight="400" text-anchor="middle" font-family="'PingFang SC','Hiragino Sans GB','Microsoft YaHei','Noto Sans CJK SC',sans-serif">第 2 个月</text><line x1="830" y1="150" x2="830" y2="560" stroke="#e2e8f0" stroke-width="1"/><text x="830" y="584" font-size="12" fill="#64748b" font-weight="400" text-anchor="middle" font-family="'PingFang SC','Hiragino Sans GB','Microsoft YaHei','Noto Sans CJK SC',sans-serif">第 3 个月</text><line x1="1070" y1="150" x2="1070" y2="560" stroke="#e2e8f0" stroke-width="1"/><text x="1070" y="584" font-size="12" fill="#64748b" font-weight="400" text-anchor="middle" font-family="'PingFang SC','Hiragino Sans GB','Microsoft YaHei','Noto Sans CJK SC',sans-serif">第 4 个月</text><text x="96" y="478" font-size="11.5" fill="#64748b" font-weight="400" text-anchor="end" font-family="'PingFang SC','Hiragino Sans GB','Microsoft YaHei','Noto Sans CJK SC',sans-serif">20</text><line x1="110" y1="474" x2="1150" y2="474" stroke="#e2e8f0" stroke-width="1"/><text x="96" y="392" font-size="11.5" fill="#64748b" font-weight="400" text-anchor="end" font-family="'PingFang SC','Hiragino Sans GB','Microsoft YaHei','Noto Sans CJK SC',sans-serif">40</text><line x1="110" y1="388" x2="1150" y2="388" stroke="#e2e8f0" stroke-width="1"/><text x="96" y="306" font-size="11.5" fill="#64748b" font-weight="400" text-anchor="end" font-family="'PingFang SC','Hiragino Sans GB','Microsoft YaHei','Noto Sans CJK SC',sans-serif">60</text><line x1="110" y1="302" x2="1150" y2="302" stroke="#e2e8f0" stroke-width="1"/><text x="96" y="220" font-size="11.5" fill="#64748b" font-weight="400" text-anchor="end" font-family="'PingFang SC','Hiragino Sans GB','Microsoft YaHei','Noto Sans CJK SC',sans-serif">80</text><line x1="110" y1="216" x2="1150" y2="216" stroke="#e2e8f0" stroke-width="1"/><text x="96" y="134" font-size="11.5" fill="#64748b" font-weight="400" text-anchor="end" font-family="'PingFang SC','Hiragino Sans GB','Microsoft YaHei','Noto Sans CJK SC',sans-serif">100</text><line x1="110" y1="130" x2="1150" y2="130" stroke="#e2e8f0" stroke-width="1"/><text x="60" y="118" font-size="12.5" fill="#64748b" font-weight="400" text-anchor="start" font-family="'PingFang SC','Hiragino Sans GB','Microsoft YaHei','Noto Sans CJK SC',sans-serif">累计告警（万条）</text><path d="M 110 552 C 300 520, 420 470, 560 400 C 700 330, 860 240, 1000 190 C 1060 168, 1110 156, 1130 152 L 1130 560 L 110 560 Z" fill="#fee2e2" opacity="0.55"/><path d="M 110 552 C 300 520, 420 470, 560 400 C 700 330, 860 240, 1000 190 C 1060 168, 1110 156, 1130 152" fill="none" stroke="#dc2626" stroke-width="3.5"/><path d="M 110 548 C 350 542, 700 536, 1130 528" fill="none" stroke="#059669" stroke-width="3.5" stroke-dasharray="10 6"/><text x="1130" y="518" font-size="12.5" fill="#059669" font-weight="600" text-anchor="end" font-family="'PingFang SC','Hiragino Sans GB','Microsoft YaHei','Noto Sans CJK SC',sans-serif">人工能深度审阅的量级 →</text><text x="1078" y="142" font-size="12.5" fill="#dc2626" font-weight="600" text-anchor="end" font-family="'PingFang SC','Hiragino Sans GB','Microsoft YaHei','Noto Sans CJK SC',sans-serif">累计 103 万+（实测规模）</text><text x="560" y="300" font-size="28" fill="#dc2626" font-weight="700" text-anchor="middle" font-family="'PingFang SC','Hiragino Sans GB','Microsoft YaHei','Noto Sans CJK SC',sans-serif">告警坟场：产生 ≠ 价值</text><text x="560" y="336" font-size="14" fill="#7f1d1d" font-weight="400" text-anchor="middle" font-family="'PingFang SC','Hiragino Sans GB','Microsoft YaHei','Noto Sans CJK SC',sans-serif">一百万条技术性极强的 JSON 告警，对兼职网管来说等于零：</text><text x="560" y="358" font-size="14" fill="#7f1d1d" font-weight="400" text-anchor="middle" font-family="'PingFang SC','Hiragino Sans GB','Microsoft YaHei','Noto Sans CJK SC',sans-serif">既看不完，也看不懂</text><text x="620" y="640" font-size="14.5" fill="#334155" font-weight="600" text-anchor="middle" font-family="'PingFang SC','Hiragino Sans GB','Microsoft YaHei','Noto Sans CJK SC',sans-serif">AI-miniSOC 的切入点：不是再造一个「产生告警」的系统，而是给存量告警配一个「翻译官」</text><text x="620" y="668" font-size="11.5" fill="#94a3b8" font-weight="400" text-anchor="middle" font-family="'PingFang SC','Hiragino Sans GB','Microsoft YaHei','Noto Sans CJK SC',sans-serif">示意图：以本项目环境实测规模（OpenSearch 中 103 万+ 告警文档）为参照的趋势示意，非逐日统计</text></svg>